<svg xmlns="http://www.w3.org/2000/svg" width="103" height="22" fill="currentColor" viewBox="0 0 103 22" class="-mt-1" style="fill: rgb(35, 38, 41) !important;"><g clip-path="url(#a)" style="fill: rgb(35, 38, 41) !important;"><path fill-rule="evenodd" d="M89.225 10.932V6.824l13.334.014v15.003H89.284v-9.134h9.04v-1.775h-9.1Zm9.098 4.993H93.52v1.87h4.804v-1.87Z" clip-rule="evenodd" style="fill: rgb(35, 38, 41) !important;"/><path d="M81.45 21.817h-4.33V6.838h9.892v4.094H81.45v10.885Zm-6.933.023H61.242V6.839h4.236v10.956h4.803V6.838h4.236v15.003Zm-15.476-.023h-10.98V6.838h10.98v4.094h-6.744v6.862h6.744v4.023Zm-13.607.023H33.65v-4.046h7.478v-1.916H33.65V6.862h11.785v4.07h-7.478v1.822h7.477v9.087Z" style="fill: rgb(35, 38, 41) !important;"/><path fill-rule="evenodd" d="M31.284 21.84H17.038V0h4.307v6.862h9.939V21.84Zm-9.94-10.908v6.862h5.704v-6.862h-5.703ZM0 21.84V6.863h14.246V21.84H0Zm4.307-10.908v6.862h5.703v-6.862H4.307Z" clip-rule="evenodd" style="fill: rgb(35, 38, 41) !important;"/></g><defs style="fill: rgb(35, 38, 41) !important;"><clipPath id="a" style="fill: rgb(35, 38, 41) !important;"><path d="M0 0h102.559v22H0z" style="fill: rgb(35, 38, 41) !important;"/></clipPath></defs></svg>